<svg version="1.1" xmlns="http://www.w3.org/2000/svg" xmlns:xlink="http://www.w3.org/1999/xlink" width="323.1034" height="75.41504" viewBox="0,0,323.1034,75.41504"><g transform="translate(-77.69829,-142.04249)"><g data-paper-data="{&quot;isPaintingLayer&quot;:true}" fill-rule="nonzero" stroke="none" stroke-width="1" stroke-linejoin="miter" stroke-miterlimit="10" stroke-dasharray="" stroke-dashoffset="0" style="mix-blend-mode: normal"><path d="M77.69829,186.32661v-43.78412h14.44803c3.00695,0 5.5983,0.46449 7.77406,1.39346c2.20021,0.90453 3.89926,2.26132 5.09715,4.07038c1.22234,1.80906 1.83351,4.07038 1.83351,6.78397c0,1.8824 -0.45226,3.58145 -1.35679,5.09715c-0.90453,1.49125 -2.16354,2.73804 -3.77702,3.74035c2.12687,1.02676 3.75258,2.42023 4.87713,4.18039c1.12455,1.76017 1.68683,3.85036 1.68683,6.27059c0,2.56691 -0.58672,4.77934 -1.76017,6.63729c-1.17344,1.83351 -2.8236,3.22697 -4.95047,4.18039c-2.12687,0.95342 -4.64488,1.43013 -7.55404,1.43013zM84.81229,179.836h8.65415c2.27355,0 4.08261,-0.56228 5.42718,-1.68683c1.34457,-1.149 2.01686,-2.67692 2.01686,-4.58376c0,-2.07797 -0.74563,-3.70368 -2.23688,-4.87713c-1.49125,-1.17344 -3.56922,-1.76017 -6.23392,-1.76017h-7.62738zM84.81229,160.91422h7.95741c2.07797,0 3.70368,-0.55005 4.87713,-1.65016c1.19789,-1.1001 1.79684,-2.62802 1.79684,-4.58376c0,-2.00463 -0.68451,-3.53255 -2.05353,-4.58376c-1.34457,-1.07566 -3.22697,-1.61349 -5.6472,-1.61349h-6.93065z" fill="#629cbc" stroke-linecap="butt"/><path d="M200.50163,186.32661v-43.78412h14.44803c3.00695,0 5.5983,0.46449 7.77406,1.39346c2.20021,0.90453 3.89926,2.26132 5.09715,4.07038c1.22234,1.80906 1.83351,4.07038 1.83351,6.78397c0,1.8824 -0.45226,3.58145 -1.35679,5.09715c-0.90453,1.49125 -2.16354,2.73804 -3.77702,3.74035c2.12687,1.02676 3.75258,2.42023 4.87713,4.18039c1.12455,1.76017 1.68683,3.85036 1.68683,6.27059c0,2.56691 -0.58672,4.77934 -1.76017,6.63729c-1.17344,1.83351 -2.8236,3.22697 -4.95047,4.18039c-2.12687,0.95342 -4.64488,1.43013 -7.55404,1.43013zM207.61564,179.836h8.65415c2.27355,0 4.08261,-0.56228 5.42718,-1.68683c1.34457,-1.149 2.01686,-2.67692 2.01686,-4.58376c0,-2.07797 -0.74563,-3.70368 -2.23688,-4.87713c-1.49125,-1.17344 -3.56922,-1.76017 -6.23392,-1.76017h-7.62738zM207.61564,160.91422h7.95741c2.07797,0 3.70368,-0.55005 4.87713,-1.65016c1.19789,-1.1001 1.79684,-2.62802 1.79684,-4.58376c0,-2.00463 -0.68451,-3.53255 -2.05353,-4.58376c-1.34457,-1.07566 -3.22697,-1.61349 -5.6472,-1.61349h-6.93065z" fill="#bcae62" stroke-linecap="butt"/><path d="M178.6461,187.06001c-3.0314,0 -5.73276,-0.69673 -8.1041,-2.0902c-2.34689,-1.39346 -4.20484,-3.31253 -5.57386,-5.75721c-1.34457,-2.46912 -2.01686,-5.30494 -2.01686,-8.50747c0,-3.22697 0.68451,-6.06279 2.05353,-8.50747c1.39346,-2.46912 3.28809,-4.40041 5.68387,-5.79388c2.39578,-1.39346 5.13382,-2.0902 8.21411,-2.0902c2.78693,0 5.30494,0.72118 7.55404,2.16354c2.27355,1.41791 4.05816,3.48366 5.35384,6.19725c1.32012,2.71359 1.98019,5.95278 1.98019,9.71758h-23.57888c0.19557,2.6158 1.16122,4.68155 2.89694,6.19725c1.73572,1.49125 3.78925,2.23688 6.16058,2.23688c1.93129,0 3.52033,-0.42782 4.76711,-1.28345c1.24678,-0.85564 2.22465,-1.96796 2.93361,-3.33698l6.19725,2.60358c-0.88008,1.68683 -2.00463,3.15363 -3.37365,4.40041c-1.34457,1.24678 -2.94583,2.20021 -4.80378,2.86027c-1.85795,0.66006 -3.9726,0.99009 -6.34393,0.99009zM170.65202,167.00146h15.5848c-0.12223,-1.5157 -0.56228,-2.76248 -1.32012,-3.74035c-0.75785,-0.97787 -1.68683,-1.71127 -2.78693,-2.20021c-1.07566,-0.51338 -2.21243,-0.77007 -3.41032,-0.77007c-1.17344,0 -2.35911,0.24447 -3.557,0.7334c-1.17344,0.48893 -2.17576,1.23456 -3.00695,2.23688c-0.83119,0.97787 -1.33235,2.22465 -1.50347,3.74035z" fill="#629cbc" stroke-linecap="butt"/><path d="M247.51523,187.06001c-3.74035,0 -6.64951,-0.83119 -8.72749,-2.49357c-2.05353,-1.66238 -3.08029,-4.02149 -3.08029,-7.07733c0,-3.25142 1.08788,-5.73276 3.26364,-7.44403c2.20021,-1.71127 5.25605,-2.56691 9.16753,-2.56691h7.95741c-0.24447,-2.27355 -0.89231,-4.00927 -1.94352,-5.20716c-1.02676,-1.22234 -2.56691,-1.83351 -4.62043,-1.83351c-1.49125,0 -2.81138,0.31781 -3.96037,0.95342c-1.12455,0.61117 -2.07797,1.57681 -2.86027,2.89694l-6.12391,-2.23688c0.66006,-1.36902 1.54014,-2.64025 2.64025,-3.81369c1.12455,-1.19789 2.53024,-2.15131 4.21706,-2.86027c1.68683,-0.70896 3.7159,-1.06343 6.08724,-1.06343c3.05584,0 5.5983,0.59895 7.62738,1.79684c2.05353,1.17344 3.56922,2.87249 4.54709,5.09715c0.97787,2.20021 1.4668,4.8649 1.4668,7.99408l-0.18335,17.12494h-6.45394l-0.18335,-3.81369c-0.83119,1.4668 -1.99241,2.59135 -3.48366,3.37365c-1.4668,0.7823 -3.25142,1.17344 -5.35384,1.17344zM248.39531,181.1928c1.54014,0 2.90916,-0.34225 4.10705,-1.02676c1.19789,-0.68451 2.11464,-1.61349 2.75026,-2.78693c0.66006,-1.17344 0.99009,-2.46912 0.99009,-3.88703v-0.62339h-5.83055c-2.78693,0 -4.75489,0.39115 -5.90389,1.17344c-1.12455,0.75785 -1.68683,1.84573 -1.68683,3.26364c0,1.22234 0.48893,2.17576 1.4668,2.86027c1.00232,0.68451 2.37133,1.02676 4.10705,1.02676z" fill="#bcae62" stroke-linecap="butt"/><path d="M315.5794,187.06001c-3.74035,0 -6.64951,-0.83119 -8.72749,-2.49357c-2.05353,-1.66238 -3.08029,-4.02149 -3.08029,-7.07733c0,-3.25142 1.08788,-5.73276 3.26364,-7.44403c2.20021,-1.71127 5.25605,-2.56691 9.16753,-2.56691h7.95741c-0.24447,-2.27355 -0.89231,-4.00927 -1.94352,-5.20716c-1.02676,-1.22234 -2.56691,-1.83351 -4.62043,-1.83351c-1.49125,0 -2.81138,0.31781 -3.96037,0.95342c-1.12455,0.61117 -2.07797,1.57681 -2.86027,2.89694l-6.12391,-2.23688c0.66006,-1.36902 1.54014,-2.64025 2.64025,-3.81369c1.12455,-1.19789 2.53024,-2.15131 4.21706,-2.86027c1.68683,-0.70896 3.7159,-1.06343 6.08724,-1.06343c3.05584,0 5.5983,0.59895 7.62738,1.79684c2.05353,1.17344 3.56922,2.87249 4.54709,5.09715c0.97787,2.20021 1.4668,4.8649 1.4668,7.99408l-0.18335,17.12494h-6.45394l-0.18335,-3.81369c-0.83119,1.4668 -1.99241,2.59135 -3.48366,3.37365c-1.4668,0.7823 -3.25142,1.17344 -5.35384,1.17344zM316.45948,181.1928c1.54014,0 2.90916,-0.34225 4.10705,-1.02676c1.19789,-0.68451 2.11464,-1.61349 2.75026,-2.78693c0.66006,-1.17344 0.99009,-2.46912 0.99009,-3.88703v-0.62339h-5.83055c-2.78693,0 -4.75489,0.39115 -5.90389,1.17344c-1.12455,0.75785 -1.68683,1.84573 -1.68683,3.26364c0,1.22234 0.48893,2.17576 1.4668,2.86027c1.00232,0.68451 2.37133,1.02676 4.10705,1.02676z" fill="#bcae62" stroke-linecap="butt"/><path d="M383.64357,187.06001c-3.74035,0 -6.64951,-0.83119 -8.72749,-2.49357c-2.05353,-1.66238 -3.08029,-4.02149 -3.08029,-7.07733c0,-3.25142 1.08788,-5.73276 3.26364,-7.44403c2.20021,-1.71127 5.25605,-2.56691 9.16753,-2.56691h7.95741c-0.24447,-2.27355 -0.89231,-4.00927 -1.94352,-5.20716c-1.02676,-1.22234 -2.56691,-1.83351 -4.62043,-1.83351c-1.49125,0 -2.81138,0.31781 -3.96037,0.95342c-1.12455,0.61117 -2.07797,1.57681 -2.86027,2.89694l-6.12391,-2.23688c0.66006,-1.36902 1.54014,-2.64025 2.64025,-3.81369c1.12455,-1.19789 2.53024,-2.15131 4.21706,-2.86027c1.68683,-0.70896 3.7159,-1.06343 6.08724,-1.06343c3.05584,0 5.5983,0.59895 7.62738,1.79684c2.05353,1.17344 3.56922,2.87249 4.54709,5.09715c0.97787,2.20021 1.4668,4.8649 1.4668,7.99408l-0.18335,17.12494h-6.45394l-0.18335,-3.81369c-0.83119,1.4668 -1.99241,2.59135 -3.48366,3.37365c-1.4668,0.7823 -3.25142,1.17344 -5.35384,1.17344zM384.52365,181.1928c1.54014,0 2.90916,-0.34225 4.10705,-1.02676c1.19789,-0.68451 2.11464,-1.61349 2.75026,-2.78693c0.66006,-1.17344 0.99009,-2.46912 0.99009,-3.88703v-0.62339h-5.83055c-2.78693,0 -4.75489,0.39115 -5.90389,1.17344c-1.12455,0.75785 -1.68683,1.84573 -1.68683,3.26364c0,1.22234 0.48893,2.17576 1.4668,2.86027c1.00232,0.68451 2.37133,1.02676 4.10705,1.02676z" fill="#bcae62" stroke-linecap="butt"/><path d="M338.31265,186.32661v-31.27961h6.56395l0.29336,4.43708c1.00232,-1.66238 2.31022,-2.93361 3.9237,-3.81369c1.61349,-0.90453 3.45921,-1.35679 5.53719,-1.35679c2.49357,0 4.62043,0.50116 6.3806,1.50347c1.78461,0.97787 3.14141,2.53024 4.07038,4.6571c0.95342,2.10242 1.43013,4.84046 1.43013,8.21411v17.63833h-7.00399v-16.02484c0,-2.49357 -0.28114,-4.41264 -0.84341,-5.75721c-0.56228,-1.36902 -1.35679,-2.32244 -2.38356,-2.86027c-1.02676,-0.53783 -2.22465,-0.80674 -3.59367,-0.80674c-2.32244,-0.04889 -4.1315,0.72118 -5.42718,2.31022c-1.29568,1.58904 -1.94352,3.86259 -1.94352,6.82064v16.3182z" fill="#bcae62" stroke-linecap="butt"/><path d="M270.24848,186.32661v-31.27961h6.56395l0.29336,4.43708c1.00232,-1.66238 2.31022,-2.93361 3.9237,-3.81369c1.61349,-0.90453 3.45921,-1.35679 5.53719,-1.35679c2.49357,0 4.62043,0.50116 6.3806,1.50347c1.78461,0.97787 3.14141,2.53024 4.07038,4.6571c0.95342,2.10242 1.43013,4.84046 1.43013,8.21411v17.63833h-7.00399v-16.02484c0,-2.49357 -0.28114,-4.41264 -0.84341,-5.75721c-0.56228,-1.36902 -1.35679,-2.32244 -2.38356,-2.86027c-1.02676,-0.53783 -2.22465,-0.80674 -3.59367,-0.80674c-2.32244,-0.04889 -4.1315,0.72118 -5.42718,2.31022c-1.29568,1.58904 -1.94352,3.86259 -1.94352,6.82064v16.3182z" fill="#bcae62" stroke-linecap="butt"/><path d="M140.6126,187.06001c-2.46912,0 -4.59599,-0.48893 -6.3806,-1.4668c-1.76017,-1.00232 -3.11696,-2.56691 -4.07038,-4.69377c-0.95342,-2.12687 -1.43013,-4.8649 -1.43013,-8.21411v-17.63833h7.00399v16.02484c0,2.44467 0.29336,4.36374 0.88008,5.75721c0.58672,1.36902 1.38124,2.32244 2.38356,2.86027c1.02676,0.53783 2.21243,0.80674 3.557,0.80674c2.37133,0.04889 4.20484,-0.72118 5.50052,-2.31022c1.29568,-1.58904 1.94352,-3.86259 1.94352,-6.82064v-16.3182h6.93065v31.27961h-6.56395l-0.29336,-4.43708c-1.00232,1.66238 -2.31022,2.94583 -3.9237,3.85036c-1.61349,0.88008 -3.45921,1.32012 -5.53719,1.32012z" fill="#629cbc" stroke-linecap="butt"/><path d="M114.66427,186.32661v-43.78412h7.00399v43.78412z" fill="#629cbc" stroke-linecap="butt"/><path d="M204.35167,212.11375c-0.9375,0 -1.76562,-0.20312 -2.48437,-0.60937c-0.70833,-0.40625 -1.30208,-0.98437 -1.78125,-1.73437l-0.09375,2.03125h-2.82812v-18.65625h2.98438v7.29688c0.45833,-0.72917 1.04167,-1.29167 1.75,-1.6875c0.71875,-0.39583 1.53646,-0.59375 2.45313,-0.59375c1.20833,0 2.26042,0.28646 3.15625,0.85938c0.90625,0.57292 1.60938,1.38021 2.10938,2.42188c0.51042,1.04167 0.76563,2.27604 0.76563,3.70313c0,1.39583 -0.25521,2.61979 -0.76562,3.67188c-0.5,1.05208 -1.20312,1.86458 -2.10937,2.4375c-0.89583,0.57292 -1.94792,0.85938 -3.15625,0.85938zM203.61729,209.395c0.70833,0 1.33854,-0.17708 1.89063,-0.53125c0.55208,-0.36458 0.98958,-0.86458 1.3125,-1.5c0.33333,-0.64583 0.5,-1.38542 0.5,-2.21875c0,-0.84375 -0.15625,-1.58333 -0.46875,-2.21875c-0.3125,-0.64583 -0.74479,-1.14583 -1.29687,-1.5c-0.55208,-0.35417 -1.19271,-0.53125 -1.92187,-0.53125c-0.66667,0 -1.27083,0.17708 -1.8125,0.53125c-0.53125,0.35417 -0.94271,0.85417 -1.23437,1.5c-0.29167,0.63542 -0.4375,1.375 -0.4375,2.21875c0,0.83333 0.14583,1.57292 0.4375,2.21875c0.29167,0.63542 0.69792,1.13542 1.21875,1.5c0.53125,0.35417 1.13542,0.53125 1.8125,0.53125z" fill="#ffffff" stroke-linecap="butt"/><path d="M165.57997,212.11375c-1.20833,0 -2.26562,-0.28646 -3.17187,-0.85937c-0.89583,-0.57292 -1.59896,-1.38542 -2.10937,-2.4375c-0.5,-1.05208 -0.75,-2.27604 -0.75,-3.67187c0,-1.42708 0.25,-2.66146 0.75,-3.70312c0.51042,-1.04167 1.21354,-1.84896 2.10938,-2.42187c0.90625,-0.57292 1.96354,-0.85937 3.17188,-0.85937c0.91667,0 1.72917,0.19792 2.4375,0.59375c0.71875,0.39583 1.30729,0.95833 1.76563,1.6875v-7.29687h2.95313v18.65625h-2.8125l-0.10937,-2.03125c-0.44792,0.75 -1.03125,1.32813 -1.75,1.73438c-0.71875,0.40625 -1.54687,0.60938 -2.48437,0.60938zM166.31435,209.395c0.65625,0 1.23958,-0.17187 1.75,-0.51562c0.52083,-0.34375 0.92708,-0.82292 1.21875,-1.4375c0.30208,-0.61458 0.46875,-1.32292 0.5,-2.125v-0.35937c-0.03125,-0.80208 -0.19792,-1.51042 -0.5,-2.125c-0.29167,-0.61458 -0.69792,-1.08854 -1.21875,-1.42187c-0.51042,-0.34375 -1.09896,-0.51562 -1.76562,-0.51562c-0.71875,0 -1.35937,0.17708 -1.92187,0.53125c-0.55208,0.35417 -0.98437,0.85417 -1.29687,1.5c-0.3125,0.63542 -0.46875,1.375 -0.46875,2.21875c0,0.83333 0.16146,1.57292 0.48438,2.21875c0.32292,0.63542 0.76042,1.13542 1.3125,1.5c0.5625,0.35417 1.19792,0.53125 1.90625,0.53125z" fill="#ffffff" stroke-linecap="butt"/><path d="M124.15569,211.80125v-18.65625h3.29688l5.85938,8.64063l5.8125,-8.64062h3.34375v18.65625h-3.09375v-13.78125l-6.07812,8.98438l-6.0625,-8.9375v13.73438z" fill="#ffffff" stroke-linecap="butt"/><path d="M181.99,212.11375c-1.29167,0 -2.44271,-0.29687 -3.45312,-0.89062c-1,-0.59375 -1.79167,-1.41146 -2.375,-2.45312c-0.57292,-1.05208 -0.85937,-2.26042 -0.85937,-3.625c0,-1.375 0.29167,-2.58333 0.875,-3.625c0.59375,-1.05208 1.40104,-1.875 2.42188,-2.46875c1.02083,-0.59375 2.1875,-0.89062 3.5,-0.89062c1.1875,0 2.26042,0.30729 3.21875,0.92188c0.96875,0.60417 1.72917,1.48438 2.28125,2.64063c0.5625,1.15625 0.84375,2.53646 0.84375,4.14063h-10.04687c0.08333,1.11458 0.49479,1.99479 1.23438,2.64063c0.73958,0.63542 1.61458,0.95313 2.625,0.95313c0.82292,0 1.5,-0.18229 2.03125,-0.54687c0.53125,-0.36458 0.94792,-0.83854 1.25,-1.42187l2.64063,1.10938c-0.375,0.71875 -0.85417,1.34375 -1.4375,1.875c-0.57292,0.53125 -1.25521,0.9375 -2.04687,1.21875c-0.79167,0.28125 -1.69271,0.42188 -2.70312,0.42188zM178.58375,203.56688h6.64063c-0.05208,-0.64583 -0.23958,-1.17708 -0.5625,-1.59375c-0.32292,-0.41667 -0.71875,-0.72917 -1.1875,-0.9375c-0.45833,-0.21875 -0.94271,-0.32812 -1.45312,-0.32812c-0.5,0 -1.00521,0.10417 -1.51562,0.3125c-0.5,0.20833 -0.92708,0.52604 -1.28125,0.95313c-0.35417,0.41667 -0.56771,0.94792 -0.64062,1.59375z" fill="#ffffff" stroke-linecap="butt"/><path d="M150.61214,212.11375c-1.59375,0 -2.83333,-0.35417 -3.71875,-1.0625c-0.875,-0.70833 -1.3125,-1.71354 -1.3125,-3.01562c0,-1.38542 0.46354,-2.44271 1.39063,-3.17187c0.9375,-0.72917 2.23958,-1.09375 3.90625,-1.09375h3.39063c-0.10417,-0.96875 -0.38021,-1.70833 -0.82812,-2.21875c-0.4375,-0.52083 -1.09375,-0.78125 -1.96875,-0.78125c-0.63542,0 -1.19792,0.13542 -1.6875,0.40625c-0.47917,0.26042 -0.88542,0.67188 -1.21875,1.23438l-2.60937,-0.95312c0.28125,-0.58333 0.65625,-1.125 1.125,-1.625c0.47917,-0.51042 1.07813,-0.91667 1.79688,-1.21875c0.71875,-0.30208 1.58333,-0.45312 2.59375,-0.45312c1.30208,0 2.38542,0.25521 3.25,0.76563c0.875,0.5 1.52083,1.22396 1.9375,2.17188c0.41667,0.9375 0.625,2.07292 0.625,3.40625l-0.07812,7.29688h-2.75l-0.07812,-1.625c-0.35417,0.625 -0.84896,1.10417 -1.48437,1.4375c-0.625,0.33333 -1.38542,0.5 -2.28125,0.5zM150.98714,209.61375c0.65625,0 1.23958,-0.14583 1.75,-0.4375c0.51042,-0.29167 0.90104,-0.6875 1.17188,-1.1875c0.28125,-0.5 0.42188,-1.05208 0.42188,-1.65625v-0.26562h-2.48437c-1.1875,0 -2.02604,0.16667 -2.51562,0.5c-0.47917,0.32292 -0.71875,0.78646 -0.71875,1.39063c0,0.52083 0.20833,0.92708 0.625,1.21875c0.42708,0.29167 1.01042,0.4375 1.75,0.4375z" fill="#ffffff" stroke-linecap="butt"/><path d="M214.54732,217.4575c-0.42708,0 -0.90625,-0.08333 -1.4375,-0.25c-0.52083,-0.15625 -1.02083,-0.35937 -1.5,-0.60937l1.125,-2.42187c0.33333,0.15625 0.64063,0.28125 0.92188,0.375c0.29167,0.10417 0.52604,0.15625 0.70313,0.15625c0.42708,0 0.78646,-0.11458 1.07813,-0.34375c0.29167,-0.21875 0.52604,-0.54167 0.70313,-0.96875l0.71875,-1.70312l-5.92187,-13.21875h3.25l4.0625,9.8125l3.96875,-9.8125h3.25l-6.1875,14.73438c-0.375,0.85417 -0.75521,1.59896 -1.14062,2.23438c-0.375,0.64583 -0.84896,1.14063 -1.42187,1.48438c-0.5625,0.35417 -1.28646,0.53125 -2.17187,0.53125z" fill="#ffffff" stroke-linecap="butt"/><path d="M79.19829,185.82661v-43.78412h14.44803c3.00695,0 5.5983,0.46449 7.77406,1.39346c2.20021,0.90453 3.89926,2.26132 5.09715,4.07038c1.22234,1.80906 1.83351,4.07038 1.83351,6.78397c0,1.8824 -0.45226,3.58145 -1.35679,5.09715c-0.90453,1.49125 -2.16354,2.73804 -3.77702,3.74035c2.12687,1.02676 3.75258,2.42023 4.87713,4.18039c1.12455,1.76017 1.68683,3.85036 1.68683,6.27059c0,2.56691 -0.58672,4.77934 -1.76017,6.63729c-1.17344,1.83351 -2.8236,3.22697 -4.95047,4.18039c-2.12687,0.95342 -4.64488,1.43013 -7.55404,1.43013zM86.31229,179.336h8.65415c2.27355,0 4.08261,-0.56228 5.42718,-1.68683c1.34457,-1.149 2.01686,-2.67692 2.01686,-4.58376c0,-2.07797 -0.74563,-3.70368 -2.23688,-4.87713c-1.49125,-1.17344 -3.56922,-1.76017 -6.23392,-1.76017h-7.62738zM86.31229,160.41422h7.95741c2.07797,0 3.70368,-0.55005 4.87713,-1.65016c1.19789,-1.1001 1.79684,-2.62802 1.79684,-4.58376c0,-2.00463 -0.68451,-3.53255 -2.05353,-4.58376c-1.34457,-1.07566 -3.22697,-1.61349 -5.6472,-1.61349h-6.93065z" fill="#84d2fd" stroke-linecap="butt"/><path d="M202.00163,186.32661v-43.78412h14.44803c3.00695,0 5.5983,0.46449 7.77406,1.39346c2.20021,0.90453 3.89926,2.26132 5.09715,4.07038c1.22234,1.80906 1.83351,4.07038 1.83351,6.78397c0,1.8824 -0.45226,3.58145 -1.35679,5.09715c-0.90453,1.49125 -2.16354,2.73804 -3.77702,3.74035c2.12687,1.02676 3.75258,2.42023 4.87713,4.18039c1.12455,1.76017 1.68683,3.85036 1.68683,6.27059c0,2.56691 -0.58672,4.77934 -1.76017,6.63729c-1.17344,1.83351 -2.8236,3.22697 -4.95047,4.18039c-2.12687,0.95342 -4.64488,1.43013 -7.55404,1.43013zM209.11564,179.836h8.65415c2.27355,0 4.08261,-0.56228 5.42718,-1.68683c1.34457,-1.149 2.01686,-2.67692 2.01686,-4.58376c0,-2.07797 -0.74563,-3.70368 -2.23688,-4.87713c-1.49125,-1.17344 -3.56922,-1.76017 -6.23392,-1.76017h-7.62738zM209.11564,160.91422h7.95741c2.07797,0 3.70368,-0.55005 4.87713,-1.65016c1.19789,-1.1001 1.79684,-2.62802 1.79684,-4.58376c0,-2.00463 -0.68451,-3.53255 -2.05353,-4.58376c-1.34457,-1.07566 -3.22697,-1.61349 -5.6472,-1.61349h-6.93065z" fill="#fce983" stroke-linecap="butt"/><path d="M180.1461,187.06001c-3.0314,0 -5.73276,-0.69673 -8.1041,-2.0902c-2.34689,-1.39346 -4.20484,-3.31253 -5.57386,-5.75721c-1.34457,-2.46912 -2.01686,-5.30494 -2.01686,-8.50747c0,-3.22697 0.68451,-6.06279 2.05353,-8.50747c1.39346,-2.46912 3.28809,-4.40041 5.68387,-5.79388c2.39578,-1.39346 5.13382,-2.0902 8.21411,-2.0902c2.78693,0 5.30494,0.72118 7.55404,2.16354c2.27355,1.41791 4.05816,3.48366 5.35384,6.19725c1.32012,2.71359 1.98019,5.95278 1.98019,9.71758h-23.57888c0.19557,2.6158 1.16122,4.68155 2.89694,6.19725c1.73572,1.49125 3.78925,2.23688 6.16058,2.23688c1.93129,0 3.52033,-0.42782 4.76711,-1.28345c1.24678,-0.85564 2.22465,-1.96796 2.93361,-3.33698l6.19725,2.60358c-0.88008,1.68683 -2.00463,3.15363 -3.37365,4.40041c-1.34457,1.24678 -2.94583,2.20021 -4.80378,2.86027c-1.85795,0.66006 -3.9726,0.99009 -6.34393,0.99009zM172.15202,167.00146h15.5848c-0.12223,-1.5157 -0.56228,-2.76248 -1.32012,-3.74035c-0.75785,-0.97787 -1.68683,-1.71127 -2.78693,-2.20021c-1.07566,-0.51338 -2.21243,-0.77007 -3.41032,-0.77007c-1.17344,0 -2.35911,0.24447 -3.557,0.7334c-1.17344,0.48893 -2.17576,1.23456 -3.00695,2.23688c-0.83119,0.97787 -1.33235,2.22465 -1.50347,3.74035z" fill="#84d2fd" stroke-linecap="butt"/><path d="M249.01523,187.06001c-3.74035,0 -6.64951,-0.83119 -8.72749,-2.49357c-2.05353,-1.66238 -3.08029,-4.02149 -3.08029,-7.07733c0,-3.25142 1.08788,-5.73276 3.26364,-7.44403c2.20021,-1.71127 5.25605,-2.56691 9.16753,-2.56691h7.95741c-0.24447,-2.27355 -0.89231,-4.00927 -1.94352,-5.20716c-1.02676,-1.22234 -2.56691,-1.83351 -4.62043,-1.83351c-1.49125,0 -2.81138,0.31781 -3.96037,0.95342c-1.12455,0.61117 -2.07797,1.57681 -2.86027,2.89694l-6.12391,-2.23688c0.66006,-1.36902 1.54014,-2.64025 2.64025,-3.81369c1.12455,-1.19789 2.53024,-2.15131 4.21706,-2.86027c1.68683,-0.70896 3.7159,-1.06343 6.08724,-1.06343c3.05584,0 5.5983,0.59895 7.62738,1.79684c2.05353,1.17344 3.56922,2.87249 4.54709,5.09715c0.97787,2.20021 1.4668,4.8649 1.4668,7.99408l-0.18335,17.12494h-6.45394l-0.18335,-3.81369c-0.83119,1.4668 -1.99241,2.59135 -3.48366,3.37365c-1.4668,0.7823 -3.25142,1.17344 -5.35384,1.17344zM249.89531,181.1928c1.54014,0 2.90916,-0.34225 4.10705,-1.02676c1.19789,-0.68451 2.11464,-1.61349 2.75026,-2.78693c0.66006,-1.17344 0.99009,-2.46912 0.99009,-3.88703v-0.62339h-5.83055c-2.78693,0 -4.75489,0.39115 -5.90389,1.17344c-1.12455,0.75785 -1.68683,1.84573 -1.68683,3.26364c0,1.22234 0.48893,2.17576 1.4668,2.86027c1.00232,0.68451 2.37133,1.02676 4.10705,1.02676z" fill="#fce983" stroke-linecap="butt"/><path d="M317.0794,187.06001c-3.74035,0 -6.64951,-0.83119 -8.72749,-2.49357c-2.05353,-1.66238 -3.08029,-4.02149 -3.08029,-7.07733c0,-3.25142 1.08788,-5.73276 3.26364,-7.44403c2.20021,-1.71127 5.25605,-2.56691 9.16753,-2.56691h7.95741c-0.24447,-2.27355 -0.89231,-4.00927 -1.94352,-5.20716c-1.02676,-1.22234 -2.56691,-1.83351 -4.62043,-1.83351c-1.49125,0 -2.81138,0.31781 -3.96037,0.95342c-1.12455,0.61117 -2.07797,1.57681 -2.86027,2.89694l-6.12391,-2.23688c0.66006,-1.36902 1.54014,-2.64025 2.64025,-3.81369c1.12455,-1.19789 2.53024,-2.15131 4.21706,-2.86027c1.68683,-0.70896 3.7159,-1.06343 6.08724,-1.06343c3.05584,0 5.5983,0.59895 7.62738,1.79684c2.05353,1.17344 3.56922,2.87249 4.54709,5.09715c0.97787,2.20021 1.4668,4.8649 1.4668,7.99408l-0.18335,17.12494h-6.45394l-0.18335,-3.81369c-0.83119,1.4668 -1.99241,2.59135 -3.48366,3.37365c-1.4668,0.7823 -3.25142,1.17344 -5.35384,1.17344zM317.95948,181.1928c1.54014,0 2.90916,-0.34225 4.10705,-1.02676c1.19789,-0.68451 2.11464,-1.61349 2.75026,-2.78693c0.66006,-1.17344 0.99009,-2.46912 0.99009,-3.88703v-0.62339h-5.83055c-2.78693,0 -4.75489,0.39115 -5.90389,1.17344c-1.12455,0.75785 -1.68683,1.84573 -1.68683,3.26364c0,1.22234 0.48893,2.17576 1.4668,2.86027c1.00232,0.68451 2.37133,1.02676 4.10705,1.02676z" fill="#fce983" stroke-linecap="butt"/><path d="M385.14357,187.06001c-3.74035,0 -6.64951,-0.83119 -8.72749,-2.49357c-2.05353,-1.66238 -3.08029,-4.02149 -3.08029,-7.07733c0,-3.25142 1.08788,-5.73276 3.26364,-7.44403c2.20021,-1.71127 5.25605,-2.56691 9.16753,-2.56691h7.95741c-0.24447,-2.27355 -0.89231,-4.00927 -1.94352,-5.20716c-1.02676,-1.22234 -2.56691,-1.83351 -4.62043,-1.83351c-1.49125,0 -2.81138,0.31781 -3.96037,0.95342c-1.12455,0.61117 -2.07797,1.57681 -2.86027,2.89694l-6.12391,-2.23688c0.66006,-1.36902 1.54014,-2.64025 2.64025,-3.81369c1.12455,-1.19789 2.53024,-2.15131 4.21706,-2.86027c1.68683,-0.70896 3.7159,-1.06343 6.08724,-1.06343c3.05584,0 5.5983,0.59895 7.62738,1.79684c2.05353,1.17344 3.56922,2.87249 4.54709,5.09715c0.97787,2.20021 1.4668,4.8649 1.4668,7.99408l-0.18335,17.12494h-6.45394l-0.18335,-3.81369c-0.83119,1.4668 -1.99241,2.59135 -3.48366,3.37365c-1.4668,0.7823 -3.25142,1.17344 -5.35384,1.17344zM386.02365,181.1928c1.54014,0 2.90916,-0.34225 4.10705,-1.02676c1.19789,-0.68451 2.11464,-1.61349 2.75026,-2.78693c0.66006,-1.17344 0.99009,-2.46912 0.99009,-3.88703v-0.62339h-5.83055c-2.78693,0 -4.75489,0.39115 -5.90389,1.17344c-1.12455,0.75785 -1.68683,1.84573 -1.68683,3.26364c0,1.22234 0.48893,2.17576 1.4668,2.86027c1.00232,0.68451 2.37133,1.02676 4.10705,1.02676z" fill="#fce983" stroke-linecap="butt"/><path d="M339.81265,186.32661v-31.27961h6.56395l0.29336,4.43708c1.00232,-1.66238 2.31022,-2.93361 3.9237,-3.81369c1.61349,-0.90453 3.45921,-1.35679 5.53719,-1.35679c2.49357,0 4.62043,0.50116 6.3806,1.50347c1.78461,0.97787 3.14141,2.53024 4.07038,4.6571c0.95342,2.10242 1.43013,4.84046 1.43013,8.21411v17.63833h-7.00399v-16.02484c0,-2.49357 -0.28114,-4.41264 -0.84341,-5.75721c-0.56228,-1.36902 -1.35679,-2.32244 -2.38356,-2.86027c-1.02676,-0.53783 -2.22465,-0.80674 -3.59367,-0.80674c-2.32244,-0.04889 -4.1315,0.72118 -5.42718,2.31022c-1.29568,1.58904 -1.94352,3.86259 -1.94352,6.82064v16.3182z" fill="#fce983" stroke-linecap="butt"/><path d="M271.74848,186.32661v-31.27961h6.56395l0.29336,4.43708c1.00232,-1.66238 2.31022,-2.93361 3.9237,-3.81369c1.61349,-0.90453 3.45921,-1.35679 5.53719,-1.35679c2.49357,0 4.62043,0.50116 6.3806,1.50347c1.78461,0.97787 3.14141,2.53024 4.07038,4.6571c0.95342,2.10242 1.43013,4.84046 1.43013,8.21411v17.63833h-7.00399v-16.02484c0,-2.49357 -0.28114,-4.41264 -0.84341,-5.75721c-0.56228,-1.36902 -1.35679,-2.32244 -2.38356,-2.86027c-1.02676,-0.53783 -2.22465,-0.80674 -3.59367,-0.80674c-2.32244,-0.04889 -4.1315,0.72118 -5.42718,2.31022c-1.29568,1.58904 -1.94352,3.86259 -1.94352,6.82064v16.3182z" fill="#fce983" stroke-linecap="butt"/><path d="M142.1126,187.06001c-2.46912,0 -4.59599,-0.48893 -6.3806,-1.4668c-1.76017,-1.00232 -3.11696,-2.56691 -4.07038,-4.69377c-0.95342,-2.12687 -1.43013,-4.8649 -1.43013,-8.21411v-17.63833h7.00399v16.02484c0,2.44467 0.29336,4.36374 0.88008,5.75721c0.58672,1.36902 1.38124,2.32244 2.38356,2.86027c1.02676,0.53783 2.21243,0.80674 3.557,0.80674c2.37133,0.04889 4.20484,-0.72118 5.50052,-2.31022c1.29568,-1.58904 1.94352,-3.86259 1.94352,-6.82064v-16.3182h6.93065v31.27961h-6.56395l-0.29336,-4.43708c-1.00232,1.66238 -2.31022,2.94583 -3.9237,3.85036c-1.61349,0.88008 -3.45921,1.32012 -5.53719,1.32012z" fill="#84d2fd" stroke-linecap="butt"/><path d="M116.16427,186.32661v-43.78412h7.00399v43.78412z" fill="#84d2fd" stroke-linecap="butt"/><path d="M235.10657,210.56867c-0.33739,0.00227 -0.65893,-0.08609 -0.96463,-0.26508c-0.29746,-0.17905 -0.53771,-0.41609 -0.72075,-0.71112c-0.18304,-0.29503 -0.2756,-0.5989 -0.2777,-0.9116c-0.00321,-0.47729 0.13408,-0.865 0.41188,-1.16312c0.27774,-0.30636 0.6956,-0.58074 1.25357,-0.82315l1.957,-0.85257c0.27902,-0.11709 0.44699,-0.2252 0.50393,-0.32434c0.06517,-0.09919 0.09687,-0.28046 0.0951,-0.54378l0.04099,-1.24704c0.00558,-0.39505 -0.07885,-0.71132 -0.25327,-0.9488c-0.17442,-0.23748 -0.43855,-0.35503 -0.7924,-0.35265c-0.18104,0.00122 -0.37006,0.03953 -0.56706,0.11492c-0.19706,0.06716 -0.3528,0.15874 -0.46723,0.27471c-0.04899,0.05794 -0.08552,0.13225 -0.10959,0.22293c-0.02408,0.09068 -0.03584,0.17718 -0.03528,0.25947c0.0005,0.07406 0.00522,0.16455 0.01417,0.27148c0.0089,0.09869 0.01365,0.1933 0.01426,0.28382c0.00055,0.08229 -0.10571,0.18999 -0.31878,0.32309c-0.2049,0.12482 -0.44279,0.23752 -0.71369,0.3381c-0.26272,0.09229 -0.4846,0.13905 -0.66564,0.14027c-0.09875,0.00066 -0.17715,-0.03173 -0.23519,-0.09717c-0.0581,-0.07367 -0.08748,-0.15988 -0.08814,-0.25863c-0.00149,-0.22219 0.07105,-0.44898 0.21762,-0.68039c0.14657,-0.23141 0.37942,-0.48397 0.69853,-0.75769c0.35192,-0.2904 0.73694,-0.55222 1.15507,-0.78545c0.41808,-0.24146 0.82826,-0.43351 1.23054,-0.57611c0.40229,-0.1426 0.75155,-0.2149 1.0478,-0.21689c0.66656,-0.00448 1.20294,0.2141 1.60916,0.65576c0.41444,0.4416 0.61996,1.0204 0.61655,1.73639l-0.08079,4.50618c-0.01441,0.30459 0.04493,0.56341 0.17804,0.77649c0.14133,0.21301 0.31075,0.31886 0.50825,0.31753c0.29625,-0.00199 0.53431,-0.09 0.71419,-0.26403c0.05722,-0.05799 0.1064,-0.08712 0.14754,-0.0874c0.06583,-0.00044 0.1236,0.02386 0.17331,0.0729c0.04971,0.04904 0.07481,0.1106 0.07531,0.18466c0.001,0.14812 -0.10882,0.33814 -0.32946,0.57005c-0.25344,0.24859 -0.52373,0.43968 -0.81086,0.57329c-0.28707,0.14183 -0.57051,0.21369 -0.8503,0.21557c-0.74062,0.00498 -1.34805,-0.37772 -1.82231,-1.1481l-0.06171,0.00042c-0.45806,0.41455 -0.87987,0.71365 -1.26541,0.89729c-0.38555,0.18364 -0.7964,0.27693 -1.23254,0.27986zM236.2584,209.30182c0.1975,-0.00133 0.36597,-0.03538 0.50543,-0.10215c0.13945,-0.06677 0.2582,-0.15398 0.35623,-0.26162c0.05711,-0.07445 0.10179,-0.16116 0.13404,-0.26013c0.03225,-0.09897 0.056,-0.23903 0.07124,-0.42018l0.02799,-1.3457c0.01551,-0.14 0.00254,-0.23455 -0.03894,-0.28365c-0.04147,-0.0491 -0.09102,-0.07345 -0.14862,-0.07307c-0.02469,0.00017 -0.0658,0.00456 -0.12335,0.01318c-0.05761,0.00039 -0.11915,0.02549 -0.18465,0.07531c-0.52528,0.20927 -0.8982,0.43398 -1.11878,0.67411c-0.22058,0.24014 -0.32959,0.54948 -0.32705,0.92802c0.00255,0.37854 0.09489,0.64949 0.27704,0.81285c0.18215,0.16336 0.37197,0.24438 0.56947,0.24305zM242.31425,210.28566c-0.1152,0.00077 -0.21412,-0.02325 -0.29675,-0.07207c-0.08263,-0.04882 -0.12421,-0.11437 -0.12476,-0.19667c-0.00077,-0.1152 0.04393,-0.1978 0.13412,-0.24779c0.09013,-0.05822 0.20501,-0.10836 0.34463,-0.15045c0.20534,-0.05899 0.39408,-0.13843 0.56623,-0.23834c0.18038,-0.09997 0.26962,-0.28984 0.26774,-0.56963l-0.03171,-4.71527c-0.00221,-0.32917 -0.04935,-0.60865 -0.14142,-0.83845c-0.09207,-0.22981 -0.28647,-0.38074 -0.58322,-0.45281c-0.05777,-0.0243 -0.1074,-0.06099 -0.14887,-0.11009c-0.04147,-0.0491 -0.0626,-0.13125 -0.06337,-0.24646c-0.00122,-0.18104 0.05981,-0.28431 0.18308,-0.30983c0.49297,-0.11853 0.98158,-0.27406 1.46582,-0.46659c0.48424,-0.19253 0.90671,-0.39288 1.26741,-0.60105c0.05738,-0.03331 0.11473,-0.07072 0.17206,-0.11225c0.05733,-0.04153 0.11068,-0.06246 0.16006,-0.06279c0.07406,-0.0005 0.11949,0.02388 0.13628,0.07315c0.02502,0.04921 0.03773,0.10262 0.03811,0.16022c0.00066,0.09875 -0.01869,0.27993 -0.05806,0.54354c-0.03115,0.26355 -0.04605,0.49408 -0.04473,0.69158c0.00039,0.05761 0.00492,0.11929 0.01359,0.18508c0.00867,0.06577 0.02126,0.10273 0.03778,0.11085c0.4743,-0.44758 0.96569,-0.80064 1.47418,-1.05917c0.50849,-0.25854 1.08778,-0.38998 1.73788,-0.39435c0.71593,-0.00482 1.31851,0.26682 1.80773,0.81491c0.48917,0.53985 0.73677,1.25827 0.74281,2.15524l0.03088,4.59183c0.00194,0.28802 0.08548,0.47262 0.25061,0.55381c0.17336,0.08113 0.36316,0.15804 0.56938,0.23071c0.11548,0.04037 0.22282,0.09314 0.32201,0.15831c0.09914,0.05694 0.14909,0.14301 0.14987,0.25822c0.00055,0.08229 -0.04429,0.14431 -0.13453,0.18607c-0.09024,0.04175 -0.18063,0.06294 -0.27114,0.06355c-0.27979,0.00188 -0.52675,-0.0088 -0.74087,-0.03205c-0.20584,-0.01507 -0.41165,-0.02604 -0.61743,-0.03288c-0.19761,-0.01513 -0.42397,-0.02184 -0.67906,-0.02012c-0.23864,0.00161 -0.46489,0.01136 -0.67873,0.02925c-0.20567,0.00962 -0.41955,0.02339 -0.64162,0.04135c-0.21379,0.02613 -0.46058,0.04013 -0.74037,0.04202c-0.07406,0.0005 -0.15238,-0.01955 -0.23494,-0.06014c-0.08257,-0.04059 -0.12413,-0.10203 -0.12468,-0.18432c-0.00077,-0.1152 0.03979,-0.20189 0.12169,-0.26004c0.08185,-0.06638 0.18024,-0.12054 0.29517,-0.16246c0.20523,-0.07545 0.38986,-0.15487 0.55389,-0.23826c0.16403,-0.0834 0.24507,-0.2691 0.24314,-0.55712l-0.02873,-4.2709c-0.00376,-0.55958 -0.14662,-0.99889 -0.42857,-1.31794c-0.27377,-0.32734 -0.64107,-0.48946 -1.1019,-0.48636c-0.37854,0.00255 -0.71143,0.06239 -0.99867,0.17954c-0.27902,0.11709 -0.5495,0.27938 -0.81144,0.48689c-0.05733,0.04153 -0.10217,0.10356 -0.13453,0.18607c-0.02419,0.07423 -0.036,0.15249 -0.03545,0.23478l0.03371,5.01152c0.00194,0.28802 0.0855,0.47674 0.25069,0.56615c0.16519,0.08941 0.35084,0.16223 0.55696,0.21845c0.29686,0.08852 0.44587,0.2192 0.44703,0.39201c0.00055,0.08229 -0.03603,0.14837 -0.10976,0.19825c-0.0655,0.04982 -0.15586,0.07511 -0.27106,0.07589c-0.27979,0.00188 -0.52675,-0.0088 -0.74087,-0.03205c-0.20584,-0.01507 -0.40753,-0.02606 -0.60508,-0.03296c-0.19761,-0.01513 -0.41985,-0.02186 -0.66672,-0.0202c-0.23864,0.00161 -0.46489,0.01136 -0.67873,0.02925c-0.2139,0.00967 -0.43188,0.02348 -0.65396,0.04144c-0.22202,0.02618 -0.47292,0.04022 -0.75271,0.0421zM258.04673,210.41438c-0.83114,0.00559 -1.57711,-0.17455 -2.23793,-0.54043c-0.66087,-0.37411 -1.19102,-0.889 -1.59045,-1.54467c-0.39942,-0.65567 -0.60193,-1.39907 -0.60752,-2.23021c-0.00432,-0.64187 0.115,-1.25577 0.35794,-1.84169c0.25112,-0.59421 0.5932,-1.1232 1.02624,-1.58696c0.43298,-0.47199 0.94482,-0.84576 1.53549,-1.1213c0.59067,-0.27555 1.21928,-0.41556 1.88584,-0.42004c0.86405,-0.00581 1.63483,0.19063 2.31233,0.58932c0.68567,0.3904 1.23233,0.91341 1.63999,1.56903c0.41588,0.65556 0.62648,1.37834 0.63179,2.16833c0.00581,0.86405 -0.17389,1.67586 -0.5391,2.43544c-0.36527,0.75134 -0.91666,1.35991 -1.65418,1.82573c-0.73757,0.45758 -1.65771,0.69008 -2.76041,0.6975zM258.46085,209.58454c0.34562,-0.00232 0.65375,-0.07435 0.92437,-0.21606c0.27885,-0.14177 0.49957,-0.36134 0.66216,-0.65869c0.17087,-0.28918 0.28348,-0.67673 0.33782,-1.16263c0.06256,-0.48596 0.09197,-1.00873 0.08821,-1.5683c-0.00504,-0.74885 -0.10832,-1.42297 -0.30986,-2.02236c-0.20159,-0.60762 -0.48054,-1.09129 -0.83682,-1.45099c-0.34806,-0.35975 -0.76073,-0.53803 -1.23802,-0.53482c-0.26333,0.00177 -0.50578,0.04866 -0.72736,0.14068c-0.21334,0.09196 -0.40982,0.24552 -0.58942,0.4607c-0.25317,0.28973 -0.42327,0.69412 -0.5103,1.21316c-0.08709,0.51081 -0.12836,1.10361 -0.12382,1.7784c0.00454,0.67479 0.10763,1.32011 0.30928,1.93596c0.20988,0.6158 0.48896,1.12004 0.83724,1.51271c0.34822,0.38444 0.7404,0.5752 1.17655,0.57227zM264.48851,210.13652c-0.1152,0.00077 -0.21412,-0.02325 -0.29675,-0.07207c-0.08263,-0.04882 -0.12421,-0.11437 -0.12476,-0.19667c-0.00077,-0.1152 0.04393,-0.1978 0.13412,-0.24779c0.09013,-0.05822 0.20501,-0.10836 0.34463,-0.15045c0.20534,-0.05899 0.39408,-0.13843 0.56623,-0.23834c0.18038,-0.09997 0.26962,-0.28984 0.26774,-0.56963l-0.03171,-4.71527c-0.00221,-0.32917 -0.04935,-0.60865 -0.14142,-0.83845c-0.09207,-0.22981 -0.28647,-0.38074 -0.58322,-0.45281c-0.05777,-0.0243 -0.1074,-0.06099 -0.14887,-0.11009c-0.04147,-0.0491 -0.0626,-0.13125 -0.06337,-0.24646c-0.00122,-0.18104 0.05981,-0.28431 0.18308,-0.30983c0.49297,-0.11853 0.98158,-0.27406 1.46582,-0.46659c0.48424,-0.19253 0.90671,-0.39288 1.26741,-0.60105c0.05738,-0.03331 0.11473,-0.07072 0.17206,-0.11225c0.05733,-0.04153 0.11068,-0.06246 0.16006,-0.06279c0.07406,-0.0005 0.11949,0.02388 0.13628,0.07315c0.02502,0.04921 0.03773,0.10262 0.03811,0.16022c0.00066,0.09875 -0.01869,0.27993 -0.05806,0.54354c-0.03115,0.26355 -0.04605,0.49408 -0.04473,0.69158c0.00039,0.05761 0.00492,0.11929 0.01359,0.18508c0.00867,0.06577 0.02126,0.10273 0.03778,0.11085c0.4743,-0.44758 0.96569,-0.80064 1.47418,-1.05917c0.50849,-0.25854 1.08778,-0.38998 1.73788,-0.39435c0.71593,-0.00482 1.31851,0.26682 1.80773,0.81491c0.48917,0.53985 0.73677,1.25827 0.74281,2.15524l0.03088,4.59183c0.00194,0.28802 0.08548,0.47262 0.25061,0.55381c0.17336,0.08113 0.36316,0.15804 0.56938,0.23071c0.11548,0.04037 0.22282,0.09314 0.32201,0.15831c0.09914,0.05694 0.14909,0.14301 0.14987,0.25822c0.00055,0.08229 -0.04429,0.14431 -0.13453,0.18607c-0.09024,0.04175 -0.18063,0.06294 -0.27114,0.06355c-0.27979,0.00188 -0.52675,-0.0088 -0.74087,-0.03205c-0.20584,-0.01507 -0.41165,-0.02604 -0.61743,-0.03288c-0.19761,-0.01513 -0.42397,-0.02184 -0.67906,-0.02012c-0.23864,0.00161 -0.46489,0.01136 -0.67873,0.02925c-0.20567,0.00962 -0.41955,0.02339 -0.64162,0.04135c-0.21379,0.02613 -0.46058,0.04013 -0.74037,0.04202c-0.07406,0.0005 -0.15238,-0.01955 -0.23494,-0.06014c-0.08257,-0.04059 -0.12413,-0.10203 -0.12468,-0.18432c-0.00077,-0.1152 0.03979,-0.20189 0.12169,-0.26004c0.08185,-0.06638 0.18024,-0.12054 0.29517,-0.16246c0.20523,-0.07545 0.38986,-0.15487 0.55389,-0.23826c0.16403,-0.0834 0.24507,-0.2691 0.24314,-0.55712l-0.02873,-4.2709c-0.00376,-0.55958 -0.14662,-0.99889 -0.42857,-1.31794c-0.27377,-0.32734 -0.64107,-0.48946 -1.1019,-0.48636c-0.37854,0.00255 -0.71143,0.06239 -0.99867,0.17954c-0.27902,0.11709 -0.5495,0.27938 -0.81144,0.48689c-0.05733,0.04153 -0.10217,0.10356 -0.13453,0.18607c-0.02419,0.07423 -0.036,0.15249 -0.03545,0.23478l0.03371,5.01152c0.00194,0.28802 0.0855,0.47674 0.25069,0.56615c0.16519,0.08941 0.35084,0.16223 0.55696,0.21845c0.29686,0.08852 0.44587,0.2192 0.44703,0.39201c0.00055,0.08229 -0.03603,0.14837 -0.10976,0.19825c-0.0655,0.04982 -0.15586,0.07511 -0.27106,0.07589c-0.27979,0.00188 -0.52675,-0.0088 -0.74087,-0.03205c-0.20584,-0.01507 -0.40753,-0.02606 -0.60508,-0.03296c-0.19761,-0.01513 -0.41985,-0.02186 -0.66672,-0.0202c-0.23864,0.00161 -0.46489,0.01136 -0.67873,0.02925c-0.2139,0.00967 -0.43188,0.02348 -0.65396,0.04144c-0.22202,0.02618 -0.47292,0.04022 -0.75271,0.0421zM276.25235,215.98261c-0.33739,0.00227 -0.65496,-0.10669 -0.9527,-0.32688c-0.29769,-0.21196 -0.44772,-0.49487 -0.4501,-0.84872c-0.00177,-0.26333 0.06237,-0.51476 0.19243,-0.75429c0.13829,-0.23958 0.3391,-0.36026 0.60243,-0.36203c0.1975,-0.00133 0.39933,0.03023 0.60551,0.09468c0.20623,0.07268 0.3998,0.10018 0.58074,0.08251c0.16447,-0.01756 0.28352,-0.05952 0.35714,-0.12584c0.08191,-0.05816 0.17165,-0.17397 0.26924,-0.34745c0.11388,-0.19827 0.23587,-0.41306 0.36599,-0.64436c0.13012,-0.2313 0.26816,-0.50791 0.41412,-0.82984c0.14597,-0.32193 0.30794,-0.7098 0.48594,-1.16362c0.12144,-0.29708 0.18128,-0.57728 0.17951,-0.84061c-0.00116,-0.17281 -0.02281,-0.33314 -0.06495,-0.48098c-0.04219,-0.15608 -0.09251,-0.29564 -0.15095,-0.41869l-2.58322,-5.99424c-0.11709,-0.27902 -0.25862,-0.52083 -0.42458,-0.72545c-0.15779,-0.2129 -0.35626,-0.35558 -0.5954,-0.42804c-0.12377,-0.04854 -0.22699,-0.10134 -0.30967,-0.15839c-0.07445,-0.05711 -0.11206,-0.14326 -0.11283,-0.25847c-0.00072,-0.10698 0.05236,-0.16905 0.15923,-0.18623c0.11504,-0.02546 0.2137,-0.03847 0.296,-0.03902c0.32917,-0.00221 0.58843,0.00427 0.77782,0.01946c0.19755,0.0069 0.37868,0.01803 0.54337,0.03338c0.17287,0.00707 0.35805,0.00994 0.55555,0.00861c0.29625,-0.00199 0.53486,-0.00771 0.71585,-0.01715c0.18093,-0.01767 0.37423,-0.03132 0.57991,-0.04093c0.20562,-0.01784 0.46066,-0.02779 0.76514,-0.02983c0.09875,-0.00066 0.20584,0.01507 0.32127,0.04722c0.11543,0.03214 0.17353,0.10582 0.17431,0.22102c0.00072,0.10698 -0.06453,0.19383 -0.19575,0.26055c-0.12299,0.06666 -0.24195,0.12095 -0.35688,0.16288c-0.13962,0.04208 -0.25016,0.12512 -0.33161,0.24911c-0.08152,0.11576 -0.12153,0.28474 -0.12003,0.50692c0.00066,0.09875 0.02207,0.22205 0.06421,0.36989c0.04214,0.14785 0.09259,0.30799 0.15136,0.48041l1.48013,3.4958c0.00862,0.05755 0.0335,0.08619 0.07464,0.08591c0.01646,-0.00011 0.04095,-0.02908 0.07348,-0.0869l1.17426,-3.43958c0.04048,-0.09903 0.07666,-0.22683 0.10852,-0.3834c0.03181,-0.1648 0.04735,-0.3007 0.04663,-0.40767c-0.00172,-0.2551 -0.06473,-0.44807 -0.18905,-0.5789c-0.11615,-0.13912 -0.24433,-0.23289 -0.38456,-0.28133c-0.10737,-0.05689 -0.2271,-0.1178 -0.35921,-0.18274c-0.12388,-0.065 -0.18617,-0.15099 -0.18689,-0.25797c-0.00077,-0.1152 0.05633,-0.18965 0.17132,-0.22335c0.12321,-0.03375 0.22597,-0.0509 0.30826,-0.05145c0.3127,-0.0021 0.57201,0.0085 0.7779,0.0318c0.21412,0.02325 0.46108,0.03394 0.74087,0.03205c0.18104,-0.00122 0.32914,-0.00633 0.44429,-0.01533c0.12333,-0.01729 0.25491,-0.03052 0.39475,-0.03968c0.13978,-0.0174 0.31665,-0.02682 0.53061,-0.02826c0.08229,-0.00055 0.18113,0.01113 0.2965,0.03504c0.12355,0.01563 0.18568,0.07693 0.1864,0.18391c0.00077,0.1152 -0.03979,0.20189 -0.12169,0.26005c-0.07367,0.0581 -0.17206,0.11226 -0.29517,0.16246c-0.23814,0.07567 -0.46748,0.23769 -0.68801,0.48605c-0.22052,0.24837 -0.40377,0.53352 -0.54973,0.85545l-2.97487,7.35246c-0.08097,0.19805 -0.1944,0.46215 -0.34031,0.79232c-0.13768,0.33011 -0.28751,0.68909 -0.44949,1.07697c-0.1537,0.39605 -0.31965,0.80453 -0.49787,1.22543c-0.17816,0.42913 -0.35229,0.84589 -0.52239,1.25028c-0.14569,0.36307 -0.37836,0.64033 -0.69802,0.83176c-0.31137,0.1996 -0.66456,0.30073 -1.05956,0.30339zM285.29371,209.99658c-0.09875,0.00066 -0.19352,-0.01927 -0.28431,-0.0598c-0.09079,-0.04053 -0.13652,-0.11018 -0.13719,-0.20892c-0.00077,-0.1152 0.04393,-0.1978 0.13412,-0.24779c0.09836,-0.05827 0.21323,-0.10842 0.34463,-0.15045c0.197,-0.07539 0.38571,-0.15896 0.56615,-0.25069c0.18043,-0.09174 0.26971,-0.2775 0.26782,-0.55729l-0.03171,-4.71527c-0.00221,-0.32917 -0.04527,-0.61279 -0.12916,-0.85088c-0.08395,-0.24632 -0.28245,-0.39311 -0.59548,-0.44039c-0.05766,-0.00784 -0.10723,-0.03631 -0.1487,-0.08541c-0.04147,-0.0491 -0.06266,-0.13948 -0.06354,-0.27114c-0.00111,-0.16458 0.05992,-0.26786 0.18308,-0.30983c0.36976,-0.08478 0.71883,-0.18589 1.04722,-0.3033c0.32839,-0.11742 0.64024,-0.24707 0.93554,-0.38896c0.30354,-0.14194 0.58238,-0.28372 0.83654,-0.42533c0.04098,-0.02496 0.08196,-0.04993 0.12294,-0.07489c0.04092,-0.0332 0.08196,-0.04993 0.1231,-0.0502c0.1152,-0.00077 0.17328,0.06878 0.17422,0.20868c0.00077,0.1152 -0.0185,0.30873 -0.05781,0.58057c-0.03109,0.27178 -0.04597,0.50643 -0.04464,0.70392c0.00094,0.13989 0.01798,0.22619 0.05112,0.25889l0.03703,-0.00025c0.39239,-0.38942 0.84276,-0.72575 1.35108,-1.00896c0.51655,-0.28328 1.12456,-0.42727 1.82404,-0.43197c0.4526,-0.00304 0.85676,0.13414 1.2125,0.41155c0.3639,0.26912 0.64213,0.64581 0.83467,1.13005l0.08641,-0.00058c0.41647,-0.48011 0.89533,-0.86188 1.43657,-1.14533c0.54947,-0.2835 1.15748,-0.42749 1.82404,-0.43197c0.44437,-0.00299 0.83614,0.12605 1.17531,0.38711c0.33911,0.25284 0.60894,0.60488 0.80948,1.05616c0.20054,0.45127 0.30272,0.96081 0.30654,1.52862l0.03088,4.59183c0.00194,0.28802 0.08548,0.47262 0.25061,0.55381c0.17336,0.08113 0.36316,0.15804 0.56938,0.23071c0.13194,0.04026 0.24337,0.08888 0.33428,0.14588c0.09085,0.04877 0.13667,0.13075 0.13744,0.24596c0.00055,0.08229 -0.03603,0.14837 -0.10976,0.19825c-0.0655,0.04982 -0.15997,0.07514 -0.2834,0.07597c-0.28802,0.00194 -0.53909,-0.00871 -0.75321,-0.03196c-0.21406,-0.01502 -0.41988,-0.02598 -0.61743,-0.03288c-0.19761,-0.01513 -0.42397,-0.02184 -0.67906,-0.02012c-0.23864,0.00161 -0.45255,0.01128 -0.6417,0.029c-0.18921,0.0095 -0.38251,0.02315 -0.5799,0.04094c-0.19733,0.02602 -0.43589,0.03997 -0.71568,0.04185c-0.1152,0.00077 -0.21,-0.02328 -0.2844,-0.07215c-0.06616,-0.04893 -0.09952,-0.11454 -0.10008,-0.19683c-0.00077,-0.1152 0.03981,-0.19777 0.12178,-0.2477c0.09013,-0.05822 0.19678,-0.10831 0.31994,-0.15028c0.19711,-0.05893 0.35708,-0.13408 0.47991,-0.22542c0.13106,-0.0914 0.19578,-0.25643 0.19418,-0.49507l-0.02922,-4.34496c-0.00238,-0.35385 -0.06206,-0.66205 -0.17904,-0.92461c-0.10875,-0.26261 -0.26654,-0.47552 -0.47338,-0.63871c-0.20684,-0.1632 -0.4378,-0.24394 -0.6929,-0.24222c-0.23864,0.00161 -0.48112,0.04438 -0.72744,0.12833c-0.23814,0.07567 -0.47182,0.2048 -0.70101,0.38739c-0.26178,0.23219 -0.39098,0.59927 -0.38761,1.10124l0.03014,4.48074c0.00194,0.28802 0.07727,0.47679 0.226,0.56631c0.14873,0.08952 0.32616,0.16239 0.53227,0.21862c0.11548,0.04037 0.21868,0.08905 0.30959,0.14605c0.09085,0.04877 0.13667,0.13075 0.13744,0.24596c0.00055,0.08229 -0.04015,0.1484 -0.12211,0.19833c-0.07373,0.04987 -0.15997,0.07514 -0.25871,0.07581c-0.27979,0.00188 -0.52263,-0.00883 -0.72852,-0.03213c-0.19761,-0.01513 -0.38696,-0.0262 -0.56806,-0.03321c-0.18115,-0.01524 -0.39928,-0.022 -0.65437,-0.02029c-0.23864,0.00161 -0.45255,0.01128 -0.6417,0.029c-0.18921,0.0095 -0.38663,0.02317 -0.59225,0.04102c-0.20556,0.02607 -0.44824,0.04005 -0.72802,0.04193c-0.09875,0.00066 -0.18943,-0.02341 -0.27206,-0.07224c-0.07439,-0.04888 -0.11186,-0.11446 -0.11242,-0.19675c-0.00077,-0.1152 0.04393,-0.1978 0.13412,-0.24779c0.09836,-0.05827 0.20089,-0.10834 0.3076,-0.1502c0.19711,-0.05893 0.36119,-0.1341 0.49225,-0.22551c0.13928,-0.09146 0.20813,-0.25652 0.20652,-0.49516l-0.02922,-4.34496c-0.00238,-0.35385 -0.06206,-0.66205 -0.17904,-0.92461c-0.11698,-0.26255 -0.27889,-0.47544 -0.48571,-0.63863c-0.19861,-0.16325 -0.42546,-0.24402 -0.68056,-0.24231c-0.23864,0.00161 -0.47701,0.04435 -0.7151,0.12825c-0.23814,0.07567 -0.48416,0.20488 -0.73804,0.38764c-0.23742,0.18265 -0.35436,0.5373 -0.35082,1.06396l0.03039,4.51777c0.00172,0.2551 0.06051,0.43164 0.17638,0.52962c0.1241,0.09792 0.29338,0.18319 0.50784,0.25582c0.11548,0.04037 0.21868,0.08905 0.30959,0.14605c0.09085,0.04877 0.13667,0.13075 0.13744,0.24596c0.00055,0.08229 -0.03603,0.14837 -0.10976,0.19825c-0.0655,0.04982 -0.15586,0.07511 -0.27106,0.07589c-0.27979,0.00188 -0.51852,-0.00885 -0.71618,-0.03221c-0.19761,-0.01513 -0.38696,-0.0262 -0.56806,-0.03321c-0.18115,-0.01524 -0.39928,-0.022 -0.65437,-0.02029c-0.23864,0.00161 -0.46077,0.01133 -0.66639,0.02917c-0.19744,0.00956 -0.4072,0.02331 -0.62927,0.04127c-0.21379,0.02613 -0.46058,0.04013 -0.74037,0.04202zM306.16437,210.09075c-0.83114,0.00559 -1.57711,-0.17455 -2.23793,-0.54043c-0.66087,-0.37411 -1.19102,-0.889 -1.59045,-1.54467c-0.39942,-0.65567 -0.60193,-1.39907 -0.60752,-2.23021c-0.00432,-0.64187 0.115,-1.25577 0.35794,-1.84169c0.25112,-0.59421 0.5932,-1.1232 1.02624,-1.58696c0.43298,-0.47199 0.94482,-0.84576 1.53549,-1.1213c0.59067,-0.27555 1.21928,-0.41556 1.88584,-0.42004c0.86405,-0.00581 1.63483,0.19063 2.31233,0.58932c0.68567,0.3904 1.23233,0.91341 1.63999,1.56903c0.41588,0.65556 0.62648,1.37834 0.63179,2.16833c0.00581,0.86405 -0.17389,1.67586 -0.5391,2.43544c-0.36527,0.75134 -0.91666,1.35991 -1.65418,1.82573c-0.73757,0.45758 -1.65771,0.69008 -2.76041,0.6975zM306.57849,209.2609c0.34562,-0.00232 0.65375,-0.07435 0.92437,-0.21606c0.27885,-0.14177 0.49957,-0.36134 0.66216,-0.65869c0.17087,-0.28918 0.28348,-0.67673 0.33782,-1.16263c0.06256,-0.48596 0.09197,-1.00873 0.08821,-1.5683c-0.00504,-0.74885 -0.10832,-1.42297 -0.30986,-2.02236c-0.20159,-0.60762 -0.48054,-1.09129 -0.83682,-1.45099c-0.34806,-0.35975 -0.76073,-0.53803 -1.23802,-0.53482c-0.26333,0.00177 -0.50578,0.04866 -0.72736,0.14068c-0.21334,0.09196 -0.40982,0.24552 -0.58942,0.4607c-0.25317,0.28973 -0.42327,0.69412 -0.5103,1.21316c-0.08709,0.51081 -0.12836,1.10361 -0.12382,1.7784c0.00454,0.67479 0.10763,1.32011 0.30928,1.93596c0.20988,0.6158 0.48896,1.12004 0.83724,1.51271c0.34822,0.38444 0.7404,0.5752 1.17655,0.57227zM319.15068,210.12684c-0.10698,0.00072 -0.16088,-0.06063 -0.16171,-0.18407c-0.00105,-0.15636 0.01394,-0.37454 0.04497,-0.65454c0.03104,-0.28001 0.04597,-0.50642 0.04481,-0.67923c-0.00028,-0.04114 -0.00464,-0.07815 -0.01309,-0.11101c-0.00845,-0.03286 -0.01273,-0.05752 -0.01284,-0.07398c-0.42471,0.48017 -0.92819,0.87034 -1.51046,1.17051c-0.58227,0.30018 -1.19846,0.45245 -1.84856,0.45682c-0.44437,0.00299 -0.8484,-0.11362 -1.21208,-0.34983c-0.35546,-0.23626 -0.63746,-0.56355 -0.84601,-0.98185c-0.20861,-0.42653 -0.31479,-0.91959 -0.31855,-1.47916l-0.02723,-4.04871c-0.00216,-0.32093 -0.06559,-0.57562 -0.1903,-0.76406c-0.12471,-0.18844 -0.35198,-0.33092 -0.6818,-0.42746c-0.0824,-0.0159 -0.15669,-0.04832 -0.22285,-0.09725c-0.05799,-0.05722 -0.08737,-0.14343 -0.08814,-0.25863c-0.00072,-0.10698 0.02753,-0.18946 0.08475,-0.24745c0.06544,-0.05805 0.13926,-0.09557 0.22144,-0.11258c0.56764,-0.02851 1.05282,-0.08115 1.45555,-0.15792c0.4109,-0.08506 0.84638,-0.18674 1.30643,-0.30505c0.05744,-0.02507 0.11082,-0.04189 0.16014,-0.05045c0.0575,-0.01684 0.11504,-0.02546 0.17264,-0.02585c0.18104,-0.00122 0.26808,0.09283 0.26113,0.28216c-0.03893,0.32944 -0.07411,0.60537 -0.10553,0.82777c-0.02325,0.21412 -0.03379,0.48165 -0.03163,0.80259l0.02731,4.06106c0.00227,0.33739 0.06604,0.64145 0.1913,0.91218c0.12521,0.2625 0.29943,0.47118 0.52267,0.62604c0.23141,0.14657 0.47884,0.22721 0.74228,0.24189c0.27156,-0.00183 0.52235,-0.03232 0.75238,-0.09147c0.23003,-0.05916 0.4555,-0.18411 0.67641,-0.37488c0.1146,-0.09129 0.24107,-0.25262 0.37942,-0.48397c0.13834,-0.23136 0.20625,-0.5363 0.2037,-0.91484l-0.02383,-3.54262c-0.00177,-0.26333 -0.0649,-0.47276 -0.18938,-0.62828c-0.11631,-0.1638 -0.26938,-0.28622 -0.4592,-0.36724c-0.18988,-0.08924 -0.38356,-0.1332 -0.58106,-0.13187c-0.14823,-0.01546 -0.26778,-0.04758 -0.35863,-0.09634c-0.08268,-0.05705 -0.1246,-0.17198 -0.12576,-0.34479c-0.00094,-0.13989 0.0478,-0.23486 0.14621,-0.2849c0.09836,-0.05827 0.20926,-0.08781 0.3327,-0.08864c0.61691,-0.04529 1.11454,-0.08156 1.49292,-0.10879c0.37832,-0.03547 0.699,-0.07465 0.96206,-0.11756c0.263,-0.05115 0.51771,-0.11047 0.76414,-0.17796c0.04103,-0.01673 0.08624,-0.02527 0.13562,-0.0256c0.04932,-0.00856 0.09043,-0.01295 0.12335,-0.01317c0.1975,-0.00133 0.29675,0.07207 0.29774,0.22019c0.00028,0.04114 -0.00353,0.08644 -0.01143,0.13587c-0.0079,0.04943 -0.024,0.10303 -0.0483,0.1608c-0.01618,0.04125 -0.03595,0.16072 -0.05931,0.35838c-0.01513,0.19761 -0.03431,0.40348 -0.05756,0.6176c-0.01507,0.20584 -0.02222,0.36636 -0.02145,0.48157l0.03288,4.88808c0.00227,0.33739 0.04085,0.56756 0.11575,0.6905c0.07489,0.12294 0.16172,0.18408 0.26047,0.18341c0.09052,-0.00061 0.21395,-0.00144 0.37031,-0.00249c0.16452,-0.00934 0.27971,-0.01422 0.34554,-0.01466c0.1152,-0.00077 0.20592,0.02742 0.27214,0.08458c0.07439,0.04888 0.11204,0.13914 0.11292,0.27081c0.00083,0.12344 -0.02322,0.21824 -0.07215,0.28441c-0.04899,0.05794 -0.13514,0.09555 -0.25847,0.11284c-0.63325,0.06187 -1.19619,0.17675 -1.68883,0.34466c-0.48446,0.15962 -0.91133,0.31885 -1.28058,0.47769c-0.08213,0.02524 -0.16836,0.05051 -0.25871,0.07581c-0.0903,0.03353 -0.17248,0.05054 -0.24654,0.05103zM327.65915,209.97086c-0.60073,0.00404 -1.17317,-0.07029 -1.71734,-0.22299c-0.54417,-0.1527 -1.03947,-0.37979 -1.48589,-0.68128c-0.08279,-0.07351 -0.16146,-0.14704 -0.23602,-0.22061c-0.07462,-0.0818 -0.13283,-0.17193 -0.17464,-0.2704c-0.10931,-0.3449 -0.19035,-0.77229 -0.24316,-1.28216c-0.04463,-0.51816 -0.06033,-1.01593 -0.04707,-1.49333c-0.00066,-0.09875 0.0359,-0.16894 0.10969,-0.21059c0.08202,-0.0417 0.18063,-0.06293 0.29583,-0.06371c0.10698,-0.00072 0.19349,0.01515 0.25955,0.04763c0.06605,0.03248 0.11176,0.098 0.13711,0.19658c0.31979,1.05122 0.77381,1.87111 1.36206,2.45968c0.59648,0.58851 1.26503,0.88027 2.00565,0.87529c0.46906,-0.00315 0.86333,-0.11279 1.18283,-0.3289c0.3195,-0.21611 0.56043,-0.48931 0.7228,-0.81958c0.17054,-0.33855 0.25449,-0.70533 0.25183,-1.10032c-0.00332,-0.49375 -0.09658,-0.90047 -0.27978,-1.22019c-0.17497,-0.31977 -0.44023,-0.60602 -0.7958,-0.85874c-0.34739,-0.261 -0.78953,-0.53783 -1.32641,-0.83048c-0.57831,-0.33352 -1.14438,-0.68358 -1.69821,-1.05018c-0.54567,-0.37489 -0.99714,-0.81624 -1.35442,-1.32406c-0.34905,-0.50788 -0.52613,-1.14036 -0.53122,-1.89743c-0.00531,-0.78999 0.18754,-1.48256 0.57855,-2.07772c0.39919,-0.60344 0.95561,-1.07626 1.66927,-1.41847c0.71366,-0.34221 1.53955,-0.51646 2.47767,-0.52277c0.52666,-0.00354 1.01257,0.0508 1.45771,0.16301c0.45338,0.11216 0.81209,0.22085 1.07614,0.32606c0.15674,0.05655 0.27242,0.12573 0.34703,0.20752c0.08285,0.08174 0.14547,0.2171 0.1879,0.4061c0.08423,0.28746 0.15653,0.63673 0.2169,1.0478c0.06854,0.40279 0.10434,0.83047 0.10738,1.28307c0.00111,0.16458 -0.12178,0.2477 -0.36865,0.24936c-0.1152,0.00077 -0.23058,-0.02314 -0.34612,-0.07174c-0.10737,-0.05689 -0.17784,-0.13459 -0.21142,-0.23311c-0.25235,-0.81302 -0.60213,-1.42788 -1.04932,-1.84457c-0.44719,-0.41669 -0.99172,-0.62288 -1.63359,-0.61856c-0.43614,0.00293 -0.81007,0.07951 -1.12177,0.22974c-0.30354,0.14194 -0.54892,0.36579 -0.73613,0.67154c-0.17899,0.3057 -0.26688,0.69719 -0.26367,1.17448c0.00244,0.36208 0.12814,0.69865 0.37712,1.00969c0.24892,0.30282 0.59656,0.60086 1.04293,0.89412c0.44636,0.29326 0.94227,0.61087 1.48771,0.95284c0.67744,0.39046 1.24382,0.78578 1.69914,1.18596c0.46348,0.3919 0.81618,0.8298 1.0581,1.31372c0.24191,0.48391 0.36508,1.05503 0.36951,1.71336c0.00625,0.92988 -0.19425,1.70892 -0.60149,2.3371c-0.39902,0.62813 -0.96365,1.10512 -1.69387,1.43098c-0.72206,0.31757 -1.57683,0.47968 -2.56432,0.48633zM337.84956,209.6431c-0.08229,0.00055 -0.17709,-0.0235 -0.2844,-0.07215c-0.09908,-0.04871 -0.14895,-0.12244 -0.14962,-0.22119c-0.00072,-0.10698 0.04399,-0.18957 0.13412,-0.24779c0.09836,-0.05827 0.19683,-0.10008 0.29542,-0.12543c0.59183,-0.10273 0.99003,-0.24119 1.1946,-0.41539c0.20451,-0.18243 0.30544,-0.47113 0.30278,-0.86613l-0.0098,-1.45655c-0.00044,-0.06583 -0.04603,-0.1149 -0.13677,-0.14721c-0.08257,-0.04059 -0.15265,-0.06069 -0.21025,-0.0603c-0.47729,0.00321 -0.98738,0.0231 -1.53028,0.05967c-0.53472,0.02828 -1.09002,0.05671 -1.66589,0.08527c-0.57593,0.02033 -1.16008,0.04072 -1.75246,0.06116c-0.06583,0.00044 -0.12769,-0.01971 -0.18557,-0.06047c-0.05788,-0.04076 -0.08695,-0.08171 -0.08723,-0.12286c-0.00028,-0.04114 0.01991,-0.09889 0.06056,-0.17323c0.13056,-0.16546 0.22848,-0.28957 0.29376,-0.3723c0.07345,-0.09102 0.13873,-0.17375 0.19584,-0.2482c0.06528,-0.08274 0.13459,-0.17784 0.20794,-0.28531l5.26498,-8.23196c0.09764,-0.16524 0.22414,-0.32246 0.3795,-0.47163c0.16358,-0.14923 0.31532,-0.22432 0.45522,-0.22526l0.25922,-0.00174c0.1152,-0.00077 0.16905,0.05236 0.16155,0.15939c-0.00757,0.0988 -0.03178,0.16892 -0.07265,0.21034l-5.13061,8.02121c-0.04064,0.07434 -0.05258,0.13614 -0.03578,0.18541c0.02502,0.04921 0.07456,0.07356 0.14862,0.07307l3.17232,-0.02134c0.04114,-0.00028 0.08218,-0.01701 0.1231,-0.0502c0.0491,-0.04147 0.07356,-0.07456 0.0734,-0.09925l-0.01876,-2.78966c-0.00138,-0.20573 0.0141,-0.34985 0.04647,-0.43236c0.03231,-0.09074 0.10999,-0.16533 0.23304,-0.22376c0.32817,-0.15034 0.67724,-0.25144 1.04722,-0.3033c0.36998,-0.05187 0.62492,-0.07827 0.76481,-0.07921c0.23864,-0.00161 0.37943,0.12912 0.42234,0.39217c0.04286,0.25483 0.06596,0.62911 0.06928,1.12286l0.01611,2.39467c0.00055,0.08229 0.03787,0.12319 0.11193,0.12269c0.16469,0.01535 0.30465,0.02264 0.41985,0.02186c0.1152,-0.00077 0.23453,-0.00158 0.35797,-0.00241c0.21395,-0.00144 0.41142,-0.00688 0.59241,-0.01632c0.18099,-0.00945 0.39077,-0.01908 0.62936,-0.02892c0.16458,-0.00111 0.24723,0.05183 0.24795,0.15881c0.00077,0.1152 -0.03115,0.26355 -0.09576,0.44504c-0.05639,0.18143 -0.12111,0.34645 -0.19418,0.49507c-0.06483,0.14857 -0.11783,0.22299 -0.15897,0.22326c-0.17281,0.00116 -0.34565,-0.00179 -0.51852,-0.00885c-0.16463,-0.00712 -0.32925,-0.01013 -0.49383,-0.00902c-0.13989,0.00094 -0.25096,0.0058 -0.33319,0.01459c-0.07401,0.00873 -0.16032,0.02165 -0.25896,0.03878c-0.0575,0.01684 -0.11907,0.03784 -0.18474,0.06297c-0.05744,0.02507 -0.0861,0.04584 -0.08599,0.0623l0.00963,1.43186c0.00277,0.41145 0.09522,0.69887 0.27737,0.86223c0.18209,0.15514 0.54934,0.30902 1.10174,0.46167c0.11548,0.04037 0.21868,0.08905 0.30959,0.14605c0.09908,0.04871 0.14895,0.12244 0.14962,0.22119c0.00055,0.08229 -0.03603,0.14837 -0.10976,0.19825c-0.07373,0.04987 -0.1682,0.0752 -0.2834,0.07597c-0.33739,0.00227 -0.66661,-0.00375 -0.98766,-0.01805c-0.31276,-0.00613 -0.61729,-0.0123 -0.9136,-0.01854c-0.28813,-0.01452 -0.58031,-0.02079 -0.87656,-0.01879c-0.32093,0.00216 -0.62536,0.01244 -0.91326,0.03083c-0.28796,0.01017 -0.58412,0.0245 -0.88849,0.04301c-0.30431,0.02674 -0.62516,0.04124 -0.96255,0.04351zM348.65415,209.82965c-0.60073,0.00404 -1.17317,-0.07029 -1.71734,-0.22299c-0.54417,-0.1527 -1.03947,-0.37979 -1.48589,-0.68128c-0.08279,-0.07351 -0.16146,-0.14704 -0.23602,-0.22061c-0.07462,-0.0818 -0.13283,-0.17193 -0.17464,-0.2704c-0.10931,-0.3449 -0.19035,-0.77229 -0.24316,-1.28216c-0.04463,-0.51816 -0.06033,-1.01593 -0.04707,-1.49333c-0.00066,-0.09875 0.0359,-0.16894 0.10969,-0.21059c0.08202,-0.0417 0.18063,-0.06293 0.29583,-0.06371c0.10698,-0.00072 0.19349,0.01515 0.25955,0.04763c0.06605,0.03248 0.11176,0.098 0.13711,0.19658c0.31979,1.05122 0.77381,1.87111 1.36206,2.45968c0.59648,0.58851 1.26503,0.88027 2.00565,0.87529c0.46906,-0.00315 0.86333,-0.11279 1.18283,-0.3289c0.3195,-0.21611 0.56043,-0.48931 0.7228,-0.81958c0.17054,-0.33855 0.25449,-0.70533 0.25183,-1.10032c-0.00332,-0.49375 -0.09658,-0.90047 -0.27978,-1.22019c-0.17497,-0.31977 -0.44023,-0.60602 -0.7958,-0.85874c-0.34739,-0.261 -0.78953,-0.53783 -1.32641,-0.83048c-0.57831,-0.33352 -1.14438,-0.68358 -1.69821,-1.05018c-0.54567,-0.37489 -0.99714,-0.81624 -1.35442,-1.32406c-0.34905,-0.50788 -0.52613,-1.14036 -0.53122,-1.89743c-0.00531,-0.78999 0.18754,-1.48256 0.57855,-2.07772c0.39919,-0.60344 0.95561,-1.07626 1.66927,-1.41847c0.71366,-0.34221 1.53955,-0.51646 2.47767,-0.52277c0.52666,-0.00354 1.01257,0.0508 1.45771,0.16301c0.45338,0.11216 0.81209,0.22085 1.07614,0.32606c0.15674,0.05655 0.27242,0.12573 0.34703,0.20752c0.08285,0.08174 0.14547,0.2171 0.1879,0.4061c0.08423,0.28746 0.15653,0.63673 0.2169,1.0478c0.06854,0.40279 0.10434,0.83047 0.10738,1.28307c0.00111,0.16458 -0.12178,0.2477 -0.36865,0.24936c-0.1152,0.00077 -0.23058,-0.02314 -0.34612,-0.07174c-0.10737,-0.05689 -0.17784,-0.13459 -0.21142,-0.23311c-0.25235,-0.81302 -0.60213,-1.42788 -1.04932,-1.84457c-0.44719,-0.41669 -0.99172,-0.62288 -1.63359,-0.61856c-0.43614,0.00293 -0.81007,0.07951 -1.12177,0.22974c-0.30354,0.14194 -0.54892,0.36579 -0.73613,0.67154c-0.17899,0.3057 -0.26688,0.69719 -0.26367,1.17448c0.00244,0.36208 0.12814,0.69865 0.37712,1.00969c0.24892,0.30282 0.59656,0.60086 1.04293,0.89412c0.44636,0.29326 0.94227,0.61087 1.48771,0.95284c0.67744,0.39046 1.24382,0.78578 1.69914,1.18596c0.46348,0.3919 0.81618,0.8298 1.0581,1.31372c0.24191,0.48391 0.36508,1.05503 0.36951,1.71336c0.00625,0.92988 -0.19425,1.70892 -0.60149,2.3371c-0.39902,0.62813 -0.96365,1.10512 -1.69387,1.43098c-0.72206,0.31757 -1.57683,0.47968 -2.56432,0.48633z" fill="#ffffff" stroke-linecap="square"/></g></g></svg>